<svg width="512" height="512" viewBox="0 0 512 512" xmlns="http://www.w3.org/2000/svg">
  <rect width="512" height="512" rx="64" fill="#0d1117"/>

  <!-- INFO -->
  <rect x="64" y="64" width="320" height="48" rx="12" fill="#1a3d2b"/>
  <rect x="80" y="82" width="90" height="12" rx="6" fill="#3fb950"/>
  <rect x="190" y="82" width="120" height="12" rx="6" fill="#3fb950" opacity="0.7"/>

  <!-- DEBUG -->
  <rect x="288" y="144" width="96" height="48" rx="12" fill="#1a3a5c"/>
  <rect x="304" y="162" width="64" height="12" rx="6" fill="#58a6ff"/>

  <!-- WARN -->
  <rect x="224" y="224" width="96" height="48" rx="12" fill="#3d2e00"/>
  <rect x="240" y="242" width="64" height="12" rx="6" fill="#e3b341"/>

  <!-- ERROR -->
  <rect x="160" y="304" width="96" height="48" rx="12" fill="#3d1a1a"/>
  <rect x="176" y="322" width="64" height="12" rx="6" fill="#f85149"/>

  <!-- FATAL -->
  <rect x="64" y="400" width="320" height="48" rx="12" fill="#f85149"/>
  <rect x="80" y="418" width="120" height="12" rx="6" fill="#ffffff"/>
  <rect x="220" y="418" width="120" height="12" rx="6" fill="#ffffff" opacity="0.8"/>
</svg>
